<svg xmlns="http://www.w3.org/2000/svg" xmlns:xlink="http://www.w3.org/1999/xlink" width="321" height="189" viewBox="0 0 240.75 141.75"><clipPath id="a"><path transform="scale(.24)" d="M0 0h1004.167v619.392H0z" fill-rule="evenodd"/></clipPath><g clip-path="url(#a)" fill="#fff"><path d="M0 0h241v148.654H0z"/><path d="M0 0h241v141.897H0z"/></g><clipPath id="b"><path transform="scale(.24)" d="M0 0h1004.167v591.238H0z" fill-rule="evenodd"/></clipPath><g clip-path="url(#b)"><path d="M0 0h241v141.897H0z" fill="#114756"/></g><clipPath id="c"><path transform="scale(.24)" d="M0 0h1004.167v591.238H0z" fill-rule="evenodd"/></clipPath><g opacity=".149" clip-path="url(#c)"><clipPath id="d"><path transform="translate(47.28) scale(.24)" d="M0 0h671v461H0z" fill-rule="evenodd"/></clipPath><g clip-path="url(#d)"><clipPath id="e"><path transform="translate(47.28) scale(.24)" d="M-1-1h670.505v461.594H-1z" fill-rule="evenodd"/></clipPath><g clip-path="url(#e)" fill="#e4989a"><path d="M55.29 2.566c0 .516-.099 1.012-.296 1.489a3.855 3.855 0 01-.844 1.263 3.854 3.854 0 01-1.262.843 3.853 3.853 0 01-1.489.297 3.853 3.853 0 01-1.489-.297 3.854 3.854 0 01-1.262-.843 3.855 3.855 0 01-.843-1.263 3.856 3.856 0 01-.297-1.49c0-.515.1-1.012.297-1.489.197-.477.478-.897.843-1.262a3.854 3.854 0 011.262-.844 3.853 3.853 0 011.489-.296c.516 0 1.012.099 1.489.296.477.198.897.479 1.262.844s.646.785.844 1.262c.197.477.296.974.296 1.49zM78.778 2.566c0 .516-.099 1.012-.296 1.489a3.855 3.855 0 01-.844 1.263 3.854 3.854 0 01-1.262.843 3.853 3.853 0 01-1.489.297 3.853 3.853 0 01-1.489-.297 3.854 3.854 0 01-1.262-.843 3.855 3.855 0 01-.843-1.263 3.856 3.856 0 01-.296-1.49c0-.515.098-1.012.296-1.489.197-.477.478-.897.843-1.262a3.854 3.854 0 011.262-.844 3.853 3.853 0 011.49-.296c.515 0 1.012.099 1.488.296.477.198.898.479 1.262.844.365.365.646.785.844 1.262.197.477.296.974.296 1.49zM102.266 2.566c0 .516-.099 1.012-.296 1.489a3.855 3.855 0 01-.844 1.263 3.854 3.854 0 01-1.262.843 3.853 3.853 0 01-1.489.297 3.853 3.853 0 01-1.489-.297 3.854 3.854 0 01-1.262-.843 3.855 3.855 0 01-.843-1.263 3.856 3.856 0 01-.296-1.49c0-.515.098-1.012.296-1.489.197-.477.478-.897.843-1.262a3.853 3.853 0 011.262-.844 3.853 3.853 0 011.49-.296c.515 0 1.011.099 1.488.296.477.198.897.479 1.262.844s.646.785.844 1.262c.197.477.296.974.296 1.49zM78.778 25.655c0 .516-.1 1.013-.297 1.49a3.855 3.855 0 01-.843 1.262 3.854 3.854 0 01-1.262.844 3.853 3.853 0 01-1.49.296 3.853 3.853 0 01-1.488-.296 3.854 3.854 0 01-1.262-.844 3.855 3.855 0 01-.844-1.262 3.856 3.856 0 01-.296-1.49c0-.516.099-1.012.296-1.489.198-.477.479-.898.844-1.263a3.853 3.853 0 011.262-.843 3.853 3.853 0 011.489-.297c.516 0 1.012.1 1.489.297.476.197.897.478 1.262.843s.646.786.843 1.263c.198.477.297.973.297 1.49zM102.266 25.655c0 .516-.099 1.013-.296 1.49a3.855 3.855 0 01-.844 1.262 3.854 3.854 0 01-1.262.844 3.853 3.853 0 01-1.489.296 3.853 3.853 0 01-1.489-.296 3.853 3.853 0 01-1.262-.844 3.855 3.855 0 01-.843-1.262 3.856 3.856 0 01-.296-1.49c0-.516.098-1.012.296-1.489.197-.477.478-.898.843-1.263a3.853 3.853 0 011.262-.843 3.853 3.853 0 011.49-.297c.515 0 1.011.1 1.488.297.477.197.897.478 1.262.843s.646.786.844 1.263c.197.477.296.973.296 1.49zM125.754 25.655c0 .516-.1 1.013-.297 1.49a3.855 3.855 0 01-.843 1.262 3.854 3.854 0 01-1.262.844 3.853 3.853 0 01-1.489.296 3.853 3.853 0 01-1.489-.296 3.853 3.853 0 01-1.262-.844 3.855 3.855 0 01-.843-1.262 3.856 3.856 0 01-.297-1.49c0-.516.1-1.012.297-1.489.197-.477.478-.898.843-1.263a3.853 3.853 0 011.262-.843 3.853 3.853 0 011.489-.297c.516 0 1.012.1 1.489.297.477.197.897.478 1.262.843s.646.786.843 1.263c.198.477.297.973.297 1.49zM90.522 37.2c0 .516-.1 1.013-.297 1.49a3.855 3.855 0 01-.843 1.262 3.854 3.854 0 01-1.262.844 3.852 3.852 0 01-1.489.296 3.853 3.853 0 01-1.489-.296 3.853 3.853 0 01-1.262-.844 3.855 3.855 0 01-.843-1.263 3.856 3.856 0 01-.297-1.489c0-.516.1-1.013.297-1.49.197-.476.478-.897.843-1.262a3.854 3.854 0 011.262-.844 3.853 3.853 0 011.489-.296c.516 0 1.012.099 1.489.296.477.198.897.48 1.262.844.365.365.646.786.843 1.263.198.476.297.973.297 1.489zM114.01 37.2c0 .516-.1 1.013-.297 1.49a3.855 3.855 0 01-.843 1.262 3.854 3.854 0 01-1.262.844 3.852 3.852 0 01-1.49.296 3.853 3.853 0 01-1.488-.296 3.853 3.853 0 01-1.262-.844 3.855 3.855 0 01-.844-1.263 3.856 3.856 0 01-.296-1.489c0-.516.099-1.013.296-1.49.198-.476.479-.897.844-1.262a3.853 3.853 0 011.262-.844 3.853 3.853 0 011.489-.296c.516 0 1.012.099 1.489.296.476.198.897.48 1.262.844.365.365.646.786.843 1.263.198.476.297.973.297 1.489zM137.497 37.2c0 .516-.098 1.013-.296 1.49a3.855 3.855 0 01-.843 1.262 3.854 3.854 0 01-1.262.844 3.852 3.852 0 01-1.49.296 3.853 3.853 0 01-1.488-.296 3.853 3.853 0 01-1.262-.844 3.855 3.855 0 01-.844-1.263 3.856 3.856 0 01-.296-1.489c0-.516.099-1.013.296-1.49.198-.476.479-.897.844-1.262a3.853 3.853 0 011.262-.844 3.853 3.853 0 011.489-.296c.516 0 1.012.099 1.489.296.476.198.897.48 1.262.844.365.365.646.786.843 1.263.198.476.296.973.296 1.489zM67.034 14.11c0 .517-.099 1.013-.296 1.49a3.855 3.855 0 01-.844 1.263 3.854 3.854 0 01-1.262.843 3.853 3.853 0 01-1.489.297 3.853 3.853 0 01-1.489-.297 3.854 3.854 0 01-1.262-.843 3.855 3.855 0 01-.843-1.263 3.856 3.856 0 01-.296-1.49c0-.515.098-1.012.296-1.489.197-.476.478-.897.843-1.262a3.854 3.854 0 011.262-.844 3.853 3.853 0 011.49-.296c.515 0 1.011.099 1.488.296.477.198.897.479 1.262.844s.646.786.844 1.262c.197.477.296.974.296 1.49zM90.522 14.11c0 .517-.1 1.013-.297 1.49a3.855 3.855 0 01-.843 1.263 3.854 3.854 0 01-1.262.843 3.853 3.853 0 01-1.489.297 3.853 3.853 0 01-1.489-.297 3.854 3.854 0 01-1.262-.843 3.855 3.855 0 01-.843-1.263 3.856 3.856 0 01-.297-1.49c0-.515.1-1.012.297-1.489.197-.476.478-.897.843-1.262a3.854 3.854 0 011.262-.844 3.853 3.853 0 011.489-.296c.516 0 1.012.099 1.489.296.477.198.897.479 1.262.844s.646.786.843 1.262c.198.477.297.974.297 1.49zM114.01 14.11c0 .517-.1 1.013-.297 1.49a3.855 3.855 0 01-.843 1.263 3.854 3.854 0 01-1.262.843 3.853 3.853 0 01-1.49.297 3.853 3.853 0 01-1.488-.297 3.854 3.854 0 01-1.262-.843 3.855 3.855 0 01-.844-1.263 3.856 3.856 0 01-.296-1.49c0-.515.099-1.012.296-1.489.198-.476.479-.897.844-1.262a3.854 3.854 0 011.262-.844 3.853 3.853 0 011.489-.296c.516 0 1.012.099 1.489.296.476.198.897.479 1.262.844s.646.786.843 1.262c.198.477.297.974.297 1.49zM114.01 60.29c0 .516-.099 1.013-.296 1.49a3.855 3.855 0 01-.844 1.262 3.854 3.854 0 01-1.262.844 3.853 3.853 0 01-1.489.296 3.853 3.853 0 01-1.489-.296 3.854 3.854 0 01-1.262-.844 3.855 3.855 0 01-.843-1.263 3.856 3.856 0 01-.296-1.489c0-.516.098-1.012.296-1.49.197-.476.478-.897.843-1.262a3.853 3.853 0 011.262-.843 3.853 3.853 0 011.49-.297c.515 0 1.012.099 1.488.297.477.197.898.478 1.262.843.365.365.646.786.844 1.263.197.477.296.973.296 1.49zM137.498 60.29c0 .516-.099 1.013-.296 1.49a3.855 3.855 0 01-.844 1.262 3.854 3.854 0 01-1.262.844 3.853 3.853 0 01-1.489.296 3.853 3.853 0 01-1.489-.296 3.854 3.854 0 01-1.262-.844 3.855 3.855 0 01-.843-1.263 3.856 3.856 0 01-.297-1.489c0-.516.1-1.012.297-1.49.197-.476.478-.897.843-1.262a3.853 3.853 0 011.262-.843 3.853 3.853 0 011.49-.297c.515 0 1.011.099 1.488.297.477.197.897.478 1.262.843s.646.786.844 1.263c.197.477.296.973.296 1.49zM160.986 60.29c0 .516-.1 1.013-.297 1.49a3.855 3.855 0 01-.843 1.262 3.854 3.854 0 01-1.262.844 3.853 3.853 0 01-1.489.296 3.853 3.853 0 01-1.489-.296 3.853 3.853 0 01-1.262-.844 3.855 3.855 0 01-.844-1.263 3.856 3.856 0 01-.296-1.489c0-.516.1-1.012.296-1.49.198-.476.48-.897.844-1.262a3.853 3.853 0 011.262-.843 3.853 3.853 0 011.489-.297c.516 0 1.012.099 1.489.297.477.197.897.478 1.262.843s.646.786.843 1.263c.198.477.297.973.297 1.49zM125.754 71.835c0 .516-.1 1.012-.297 1.49a3.855 3.855 0 01-.843 1.262 3.854 3.854 0 01-1.262.843 3.853 3.853 0 01-1.489.297 3.853 3.853 0 01-1.489-.297 3.854 3.854 0 01-1.262-.843 3.855 3.855 0 01-.843-1.263 3.856 3.856 0 01-.297-1.49c0-.515.1-1.012.297-1.489.197-.476.478-.897.843-1.262a3.853 3.853 0 011.262-.844 3.853 3.853 0 011.489-.296c.516 0 1.012.099 1.489.296.477.198.897.479 1.262.844s.646.786.843 1.262c.198.477.297.974.297 1.49zM149.242 71.835c0 .516-.099 1.012-.296 1.49a3.855 3.855 0 01-.844 1.262 3.854 3.854 0 01-1.262.843 3.853 3.853 0 01-1.489.297 3.853 3.853 0 01-1.489-.297 3.854 3.854 0 01-1.262-.843 3.855 3.855 0 01-.843-1.263 3.856 3.856 0 01-.296-1.49c0-.515.098-1.012.296-1.489.197-.476.478-.897.843-1.262a3.853 3.853 0 011.262-.844 3.853 3.853 0 011.49-.296c.515 0 1.012.099 1.488.296.477.198.898.479 1.262.844.365.365.646.786.844 1.262.197.477.296.974.296 1.49zM172.73 71.835c0 .516-.1 1.012-.297 1.49a3.855 3.855 0 01-.843 1.262 3.854 3.854 0 01-1.262.843 3.853 3.853 0 01-1.49.297 3.853 3.853 0 01-1.488-.297 3.854 3.854 0 01-1.262-.843 3.855 3.855 0 01-.844-1.263 3.855 3.855 0 01-.296-1.49c0-.515.099-1.012.296-1.489.198-.476.479-.897.844-1.262a3.853 3.853 0 011.262-.844 3.853 3.853 0 011.489-.296c.516 0 1.012.099 1.489.296.476.198.897.479 1.262.844s.646.786.843 1.262c.198.477.296.974.296 1.49zM102.266 48.746c0 .516-.099 1.012-.296 1.489a3.855 3.855 0 01-.844 1.262 3.854 3.854 0 01-1.262.844 3.852 3.852 0 01-1.489.296 3.853 3.853 0 01-1.489-.296 3.854 3.854 0 01-1.262-.844 3.855 3.855 0 01-.843-1.262 3.856 3.856 0 01-.296-1.49c0-.516.098-1.012.296-1.489.197-.477.478-.898.843-1.262a3.853 3.853 0 011.262-.844 3.853 3.853 0 011.49-.296c.515 0 1.011.098 1.488.296.477.197.897.479 1.262.844.365.364.646.785.844 1.262.197.477.296.973.296 1.49zM125.754 48.746c0 .516-.1 1.012-.297 1.489a3.855 3.855 0 01-.843 1.262 3.854 3.854 0 01-1.262.844 3.853 3.853 0 01-1.489.296 3.853 3.853 0 01-1.489-.296 3.854 3.854 0 01-1.262-.844 3.855 3.855 0 01-.843-1.262 3.856 3.856 0 01-.297-1.49c0-.516.1-1.012.297-1.489.197-.477.478-.898.843-1.262a3.853 3.853 0 011.262-.844 3.853 3.853 0 011.489-.296c.516 0 1.012.098 1.489.296.477.197.897.479 1.262.844.365.364.646.785.843 1.262.198.477.297.973.297 1.49zM149.242 48.746c0 .516-.099 1.012-.296 1.489a3.855 3.855 0 01-.844 1.262 3.854 3.854 0 01-1.262.844 3.852 3.852 0 01-1.489.296 3.853 3.853 0 01-1.489-.296 3.854 3.854 0 01-1.262-.844 3.855 3.855 0 01-.843-1.262 3.856 3.856 0 01-.296-1.49c0-.516.098-1.012.296-1.489.197-.477.478-.898.843-1.262a3.853 3.853 0 011.262-.844 3.853 3.853 0 011.49-.296c.515 0 1.012.098 1.488.296.477.197.898.479 1.262.844.365.364.646.785.844 1.262.197.477.296.973.296 1.49zM149.242 94.925c0 .516-.1 1.012-.297 1.489a3.855 3.855 0 01-.843 1.262 3.854 3.854 0 01-1.262.844 3.853 3.853 0 01-1.49.296 3.853 3.853 0 01-1.488-.296 3.854 3.854 0 01-1.262-.844 3.855 3.855 0 01-.844-1.262 3.856 3.856 0 01-.296-1.49c0-.516.099-1.012.296-1.489.198-.477.479-.898.844-1.262a3.854 3.854 0 011.262-.844 3.853 3.853 0 011.489-.296c.516 0 1.012.098 1.489.296.476.197.897.479 1.262.844.365.364.646.785.843 1.262.198.477.296.973.297 1.49zM172.73 94.925c0 .516-.1 1.012-.297 1.489a3.855 3.855 0 01-.843 1.262 3.854 3.854 0 01-1.262.844 3.853 3.853 0 01-1.49.296 3.853 3.853 0 01-1.488-.296 3.854 3.854 0 01-1.262-.844 3.855 3.855 0 01-.844-1.262 3.855 3.855 0 01-.296-1.49c0-.516.099-1.012.296-1.489.198-.477.479-.898.844-1.262a3.854 3.854 0 011.262-.844 3.853 3.853 0 011.489-.296c.516 0 1.012.098 1.489.296.476.197.897.479 1.262.844.365.364.646.785.843 1.262.198.477.296.973.296 1.49zM196.218 94.925c0 .516-.1 1.012-.297 1.489a3.855 3.855 0 01-.843 1.262 3.854 3.854 0 01-1.262.844 3.853 3.853 0 01-1.489.296 3.853 3.853 0 01-1.489-.296 3.854 3.854 0 01-1.262-.844 3.855 3.855 0 01-.844-1.262 3.855 3.855 0 01-.296-1.49c0-.516.099-1.012.296-1.489.198-.477.48-.898.844-1.262a3.854 3.854 0 011.262-.844 3.853 3.853 0 011.489-.296c.516 0 1.012.098 1.489.296.477.197.897.479 1.262.844.365.364.646.785.843 1.262.198.477.297.973.297 1.49zM160.986 106.47c0 .515-.1 1.012-.297 1.488a3.855 3.855 0 01-.843 1.263 3.854 3.854 0 01-1.262.844 3.853 3.853 0 01-1.489.296 3.853 3.853 0 01-1.489-.296 3.854 3.854 0 01-1.262-.844 3.855 3.855 0 01-.844-1.263 3.856 3.856 0 01-.296-1.489c0-.516.1-1.012.296-1.49.198-.476.48-.897.844-1.262a3.853 3.853 0 011.262-.843 3.853 3.853 0 011.489-.297c.516 0 1.012.099 1.489.297.477.197.897.478 1.262.843s.646.786.843 1.263c.198.477.297.973.297 1.49zM184.473 106.47c0 .515-.098 1.012-.296 1.488a3.855 3.855 0 01-.843 1.263 3.854 3.854 0 01-1.262.844 3.853 3.853 0 01-1.49.296 3.853 3.853 0 01-1.488-.296 3.854 3.854 0 01-1.262-.844 3.855 3.855 0 01-.844-1.263 3.856 3.856 0 01-.296-1.489c0-.516.099-1.012.296-1.49.198-.476.479-.897.844-1.262a3.854 3.854 0 011.262-.843 3.853 3.853 0 011.489-.297c.516 0 1.012.099 1.489.297.476.197.897.478 1.262.843s.646.786.843 1.263c.198.477.296.973.296 1.49zM207.961 106.47c0 .515-.098 1.012-.296 1.488a3.855 3.855 0 01-.843 1.263 3.854 3.854 0 01-1.262.844 3.853 3.853 0 01-1.49.296 3.853 3.853 0 01-1.488-.296 3.854 3.854 0 01-1.262-.844 3.855 3.855 0 01-.844-1.263 3.855 3.855 0 01-.296-1.489c0-.516.099-1.012.296-1.49.198-.476.479-.897.844-1.262a3.853 3.853 0 011.262-.843 3.853 3.853 0 011.489-.297c.516 0 1.012.099 1.489.297.476.197.897.478 1.262.843s.646.786.843 1.263c.198.477.296.973.296 1.49zM137.497 83.38c0 .516-.098 1.012-.296 1.489a3.855 3.855 0 01-.843 1.262 3.854 3.854 0 01-1.262.844 3.853 3.853 0 01-1.49.296 3.853 3.853 0 01-1.488-.296 3.854 3.854 0 01-1.262-.844 3.855 3.855 0 01-.844-1.262 3.856 3.856 0 01-.296-1.49c0-.516.099-1.012.296-1.489.198-.477.479-.898.844-1.263a3.853 3.853 0 011.262-.843 3.853 3.853 0 011.489-.296c.516 0 1.012.098 1.489.296.476.197.897.478 1.262.843s.646.786.843 1.263c.198.477.296.973.296 1.49zM160.986 83.38c0 .516-.1 1.012-.297 1.489a3.855 3.855 0 01-.843 1.262 3.854 3.854 0 01-1.262.844 3.853 3.853 0 01-1.489.296 3.853 3.853 0 01-1.489-.296 3.854 3.854 0 01-1.262-.844 3.855 3.855 0 01-.844-1.262 3.856 3.856 0 01-.296-1.49c0-.516.1-1.012.296-1.489.198-.477.48-.898.844-1.263a3.853 3.853 0 011.262-.843 3.853 3.853 0 011.489-.296c.516 0 1.012.098 1.489.296.477.197.897.478 1.262.843s.646.786.843 1.263c.198.477.297.973.297 1.49zM184.473 83.38c0 .516-.098 1.012-.296 1.489a3.855 3.855 0 01-.843 1.262 3.854 3.854 0 01-1.262.844 3.853 3.853 0 01-1.49.296 3.853 3.853 0 01-1.488-.296 3.854 3.854 0 01-1.262-.844 3.855 3.855 0 01-.844-1.262 3.856 3.856 0 01-.296-1.49c0-.516.099-1.012.296-1.489.198-.477.479-.898.844-1.263a3.854 3.854 0 011.262-.843 3.853 3.853 0 011.489-.296c.516 0 1.012.098 1.489.296.476.197.897.478 1.262.843s.646.786.843 1.263c.198.477.296.973.296 1.49z"/></g></g></g><clipPath id="f"><path transform="scale(.24)" d="M0 0h1004.167v619.392H0z"/></clipPath><g clip-path="url(#f)"><clipPath id="g"><path transform="scale(.24)" d="M0 0h1004.167v591.238H0z"/></clipPath><g clip-path="url(#g)"><clipPath id="h"><path transform="scale(.24)" d="M1162.9 179.067l278.713 278.712-579.545 579.545L583.355 758.61 1162.9 179.067z"/></clipPath><g clip-path="url(#h)"><clipPath id="i"><path transform="scale(.24)" d="M1012.437 28.604l579.545 579.544-579.545 579.545-579.545-579.545 579.545-579.544z"/></clipPath><g clip-path="url(#i)"><path d="M242.985 6.865l139.09 139.09-139.09 139.091-139.09-139.09z" fill="#4e6a7d"/></g></g></g></g><clipPath id="j"><path transform="scale(.24)" d="M0 0h1004.167v591.238H0z" fill-rule="evenodd"/></clipPath><g clip-path="url(#j)"><g opacity=".149"><clipPath id="k"><path transform="scale(.24)" d="M0 0h974v592H0z" fill-rule="evenodd"/></clipPath><g clip-path="url(#k)"><clipPath id="l"><path transform="scale(.24)" d="M-423.975 300.37L16.214-139.819l785.261 785.262-440.189 440.188-785.26-785.26z"/></clipPath><g clip-path="url(#l)"><clipPath id="m"><path transform="scale(.24)" d="M-596.572 472.967L188.69-312.294 973.95 472.967l-785.26 785.261-785.262-785.26z"/></clipPath><g clip-path="url(#m)"><path d="M-143.177 113.512L45.285-74.95l188.463 188.463L45.285 301.975z" fill="#e4989a"/></g></g></g></g><symbol id="n"><path d="M.031.156A.222.222 0 01.154.122c.028 0 .05.005.067.014.017.01.03.025.038.045.009.02.014.045.017.074C.279.285.28.32.28.36v.361h.138V.36C.418.306.415.257.409.212A.286.286 0 00.373.099.183.183 0 00.294.026.316.316 0 00.154 0 .265.265 0 000 .044l.031.112z"/></symbol><symbol id="o"><path d="M.493.121V0H0v.71h.484V.589H.138V.418h.299V.306H.138V.121h.355z"/></symbol><symbol id="q"><path d="M.579 0v.47L.396.12H.321L.138.47V0H0v.71h.148l.21-.404L.57.71h.147V0H.579z"/></symbol><symbol id="r"><path d="M.346 0a.33.33 0 00-.251.111.38.38 0 00-.069.385.348.348 0 00.323.224.343.343 0 00.249-.114.38.38 0 00.069-.384.357.357 0 00-.182-.193A.333.333 0 00.346 0M.14.36C.14.33.145.3.154.271A.209.209 0 01.259.142a.19.19 0 01.088-.02A.186.186 0 01.5.197a.28.28 0 01.039.252.232.232 0 01-.041.076.184.184 0 01-.065.052.182.182 0 01-.086.02.19.19 0 01-.154-.075.243.243 0 01-.04-.076A.29.29 0 01.14.36z"/></symbol><symbol id="s"><path d="M0 .366a.37.37 0 00.092.242.347.347 0 00.427.069.274.274 0 00.107-.112L.52.492a.174.174 0 01-.125.1.21.21 0 01-.14-.015.204.204 0 01-.064-.055.283.283 0 01-.036-.251.22.22 0 01.108-.129.184.184 0 01.085-.02.222.222 0 01.099.025.16.16 0 01.076.083L.636.165A.215.215 0 00.587.094.353.353 0 00.344 0C.294 0 .247.01.205.032A.372.372 0 000 .366z"/></symbol><symbol id="t"><path d="M0 0v.709h.138V.372L.436.71h.152L.316.395.605 0H.45L.229.307.138.212V0H0z"/></symbol><symbol id="u"><path d="M.591.589H.364V0H.227v.589H0V.71h.591V.589z"/></symbol><symbol id="v"><path d="M.475.532a.255.255 0 01-.071.042.336.336 0 01-.057.02.251.251 0 01-.063.008C.246.602.218.595.199.581A.07.07 0 01.171.522c0-.015.003-.027.01-.037A.1.1 0 01.212.46a.26.26 0 01.05-.02L.333.421a.983.983 0 00.094-.03.247.247 0 00.072-.04.162.162 0 00.046-.058.187.187 0 00.016-.082.205.205 0 00-.022-.098.176.176 0 00-.058-.065.254.254 0 00-.084-.037A.534.534 0 000 .092l.061.119A.215.215 0 01.093.187.466.466 0 01.22.134.32.32 0 01.3.124c.076 0 .114.024.114.073a.06.06 0 01-.013.039.11.11 0 01-.037.028.354.354 0 01-.058.022A10.29 10.29 0 01.23.308a.727.727 0 00-.089.03.253.253 0 00-.062.039.158.158 0 00-.038.052A.19.19 0 00.029.5a.22.22 0 00.02.096.196.196 0 00.055.07.25.25 0 00.083.042.385.385 0 00.239-.009.498.498 0 00.11-.055L.475.532z"/></symbol><use xlink:href="#n" transform="matrix(16.2863 0 0 -16.2863 78.538 81.613)" fill="#ef4136"/><use xlink:href="#o" transform="matrix(16.2863 0 0 -16.2863 87.625 81.434)" fill="#ef4136"/><use xlink:href="#o" transform="matrix(16.2863 0 0 -16.2863 97.412 81.434)" fill="#ef4136"/><use xlink:href="#p" transform="matrix(16.2863 0 0 -16.2863 105.994 81.434)" fill="#ef4136"/><use xlink:href="#q" transform="matrix(16.2863 0 0 -16.2863 111.108 81.434)" fill="#ef4136"/><use xlink:href="#r" transform="matrix(16.2863 0 0 -16.2863 124.494 81.515)" fill="#ef4136"/><use xlink:href="#s" transform="matrix(16.2863 0 0 -16.2863 136.805 81.532)" fill="#ef4136"/><use xlink:href="#t" transform="matrix(16.2863 0 0 -16.2863 148.676 81.434)" fill="#ef4136"/><use xlink:href="#p" transform="matrix(16.2863 0 0 -16.2863 158.366 81.434)" fill="#ef4136"/><use xlink:href="#u" transform="matrix(16.2863 0 0 -16.2863 162.502 81.434)" fill="#ef4136"/><use xlink:href="#o" transform="matrix(16.2863 0 0 -16.2863 173.56 81.434)" fill="#ef4136"/><use xlink:href="#v" transform="matrix(16.2863 0 0 -16.2863 182.5 81.564)" fill="#ef4136"/><use xlink:href="#u" transform="matrix(16.2863 0 0 -16.2863 192.352 81.434)" fill="#ef4136"/></g><clipPath id="w"><path transform="scale(.24)" d="M219.439 245.304h134.514v140.77H219.44z" fill-rule="evenodd"/></clipPath><g clip-path="url(#w)" fill="#ef4136"><path d="M57.165 71.617h16.31v1.177h-16.31z"/><path d="M75.597 79.89v11.333h-20.89V63.469h2.234v.948c0 .68.55 1.232 1.228 1.232a1.23 1.23 0 001.229-1.232v-.948h4.525v.948c0 .68.55 1.232 1.229 1.232a1.23 1.23 0 001.228-1.232v-.948h4.833v.948c0 .68.55 1.232 1.229 1.232a1.23 1.23 0 001.228-1.232v-.948h1.927v6.83l1.899-2.503v-6.232H73.67v-1.74c0-.68-.55-1.232-1.228-1.232a1.23 1.23 0 00-1.229 1.232v1.74H66.38v-1.74c0-.68-.55-1.232-1.228-1.232a1.23 1.23 0 00-1.23 1.232v1.74h-4.524v-1.74c0-.68-.55-1.232-1.229-1.232a1.23 1.23 0 00-1.228 1.232v1.74h-4.134v31.564h24.69V77.387l-1.9 2.503z"/><path d="M57.165 74.838h11.562v1.177H57.165zM57.165 68.508h16.31v1.177h-16.31zM68.374 86.922l-2.216-1.691-.482 2.942 2.698-1.251zM82.638 68.487l-13.316 17.55-2.566-1.958 13.315-17.55zM84.1 63.885c-.678-.52-1.667-.473-2.098.094l-1.137 1.501 2.567 1.958 1.139-1.5c.449-.592.238-1.513-.47-2.053z"/></g><clipPath id="x"><path transform="scale(.24)" d="M0 0h1004.167v591.238H0z" fill-rule="evenodd"/></clipPath><g clip-path="url(#x)"><symbol id="y"><path d="M0 .709h.443V.571H.152V.443h.256V.305H.152V0H0v.709z"/></symbol><symbol id="z"><path d="M.51.498A.21.21 0 00.5.433.214.214 0 00.433.332.228.228 0 00.381.301L.616 0H.439L.22.286H.152V0H0v.709h.306A.187.187 0 00.385.692.202.202 0 00.494.58.21.21 0 00.51.498M.287.424c.02 0 .036.007.05.021a.074.074 0 01.021.053.07.07 0 01-.021.051.067.067 0 01-.05.022H.152V.424h.135z"/></symbol><symbol id="A"><path d="M0 .709h.443V.571H.152V.443h.256V.305H.152V.137h.291V0H0v.709z"/></symbol><symbol id="C"><path d="M.349.732A.348.348 0 00.596.624.366.366 0 00.699.367c0-.05-.01-.096-.028-.141A.363.363 0 00.485.029a.326.326 0 00-.272 0 .361.361 0 00-.186.197.374.374 0 00.186.477c.043.02.088.029.136.029m0-.581c.027 0 .053.006.077.017a.205.205 0 01.105.115.22.22 0 01.016.084.22.22 0 01-.016.084.206.206 0 01-.105.116.178.178 0 01-.077.017.178.178 0 01-.077-.017.22.22 0 01-.121-.2c0-.03.005-.058.015-.084A.205.205 0 01.272.168.178.178 0 01.349.151z"/></symbol><symbol id="D"><path d="M.461.709L.757 0H.593L.529.152H.228L.165 0H0l.296.709h.165M.472.29L.379.513.286.29h.186z"/></symbol><symbol id="E"><path d="M.152.137h.291V0H0v.709h.152V.137z"/></symbol><symbol id="F"><path d="M.459.378A.173.173 0 00.523.314a.18.18 0 00.022-.09.184.184 0 00-.023-.09.24.24 0 00-.065-.073A.29.29 0 00.37.016.363.363 0 00.165.015.263.263 0 00.078.06.218.218 0 000 .164l.14.065C.14.222.142.214.147.204A.096.096 0 01.169.175.13.13 0 01.208.151a.154.154 0 01.059-.01.155.155 0 01.085.024c.01.007.017.015.022.024.005.01.008.019.008.028 0 .01-.004.02-.011.03a.065.065 0 01-.032.022.633.633 0 01-.085.023.908.908 0 00-.086.024.356.356 0 00-.078.039.166.166 0 00-.057.067.179.179 0 00-.019.081.21.21 0 00.022.093c.015.03.036.055.062.076a.293.293 0 00.18.06.31.31 0 00.097-.015A.266.266 0 00.516.61L.402.532a.153.153 0 01-.123.064.131.131 0 01-.084-.024.078.078 0 01-.029-.063c0-.012.005-.023.016-.032A.174.174 0 01.225.452a.527.527 0 01.06-.02A1.85 1.85 0 00.412.398a.211.211 0 00.047-.02z"/></symbol><symbol id="G"><path d="M0 .709h.513V.571H.332V0H.181v.571H0v.138z"/></symbol><symbol id="H"><path d="M.406.722h.151V.269A.246.246 0 00.535.167.278.278 0 00.386.022a.27.27 0 00-.216 0 .286.286 0 00-.148.145A.246.246 0 000 .269v.453h.151V.299A.163.163 0 01.188.195a.133.133 0 01.04-.032.11.11 0 01.1 0 .133.133 0 01.04.032.16.16 0 01.038.104v.423z"/></symbol><symbol id="I"><path d="M.286.709c.051 0 .097-.01.136-.028A.278.278 0 00.52.605.322.322 0 00.58.492.446.446 0 00.52.103.288.288 0 00.43.027.242.242 0 00.317 0H0v.709h.286M.287.137C.316.137.34.143.36.154c.02.012.038.028.051.048.013.02.023.043.029.069a.364.364 0 01.001.164.207.207 0 01-.029.07.145.145 0 01-.125.066H.152V.137h.135z"/></symbol><symbol id="J"><path d="M.485.709h.151V0H.492L.151.463V0H0v.709h.142L.485.243v.466z"/></symbol><use xlink:href="#y" transform="matrix(7.1791 0 0 -7.1791 115.243 90.157)" fill="#fff"/><use xlink:href="#z" transform="matrix(7.1791 0 0 -7.1791 118.853 90.157)" fill="#fff"/><use xlink:href="#A" transform="matrix(7.1791 0 0 -7.1791 123.79 90.157)" fill="#fff"/><use xlink:href="#A" transform="matrix(7.1791 0 0 -7.1791 127.66 90.157)" fill="#fff"/><use xlink:href="#B" transform="matrix(7.1791 0 0 -7.1791 131.183 90.157)" fill="#fff"/><use xlink:href="#y" transform="matrix(7.1791 0 0 -7.1791 133.494 90.157)" fill="#fff"/><use xlink:href="#C" transform="matrix(7.1791 0 0 -7.1791 137.004 90.25)" fill="#fff"/><use xlink:href="#z" transform="matrix(7.1791 0 0 -7.1791 142.595 90.157)" fill="#fff"/><use xlink:href="#B" transform="matrix(7.1791 0 0 -7.1791 147.188 90.157)" fill="#fff"/><use xlink:href="#D" transform="matrix(7.1791 0 0 -7.1791 149.32 90.157)" fill="#fff"/><use xlink:href="#E" transform="matrix(7.1791 0 0 -7.1791 155.248 90.157)" fill="#fff"/><use xlink:href="#E" transform="matrix(7.1791 0 0 -7.1791 158.837 90.157)" fill="#fff"/><use xlink:href="#B" transform="matrix(7.1791 0 0 -7.1791 162.088 90.157)" fill="#fff"/><use xlink:href="#F" transform="matrix(7.1791 0 0 -7.1791 164.342 90.25)" fill="#fff"/><use xlink:href="#G" transform="matrix(7.1791 0 0 -7.1791 168.648 90.157)" fill="#fff"/><use xlink:href="#H" transform="matrix(7.1791 0 0 -7.1791 172.796 90.25)" fill="#fff"/><use xlink:href="#I" transform="matrix(7.1791 0 0 -7.1791 177.433 90.157)" fill="#fff"/><use xlink:href="#A" transform="matrix(7.1791 0 0 -7.1791 182.335 90.157)" fill="#fff"/><use xlink:href="#J" transform="matrix(7.1791 0 0 -7.1791 186.196 90.157)" fill="#fff"/><use xlink:href="#G" transform="matrix(7.1791 0 0 -7.1791 191.263 90.157)" fill="#fff"/><use xlink:href="#F" transform="matrix(7.1791 0 0 -7.1791 195.39 90.25)" fill="#fff"/><symbol id="K"><path d="M.306.709A.187.187 0 00.385.692.189.189 0 00.449.647a.21.21 0 00.06-.149.217.217 0 00-.124-.196.197.197 0 00-.079-.016H.151V0H0v.709h.306M.286.424c.02 0 .036.007.05.021a.072.072 0 01.022.053c0 .02-.007.037-.022.051a.067.067 0 01-.05.022H.151V.424h.135z"/></symbol><symbol id="L"><path d="M.532.508V.012H.413L.399.065a.139.139 0 00-.07-.052.27.27 0 00-.182.007A.257.257 0 000 .261a.258.258 0 00.147.24.249.249 0 00.186.006.149.149 0 00.066-.048l.014.049h.119M.394.259a.167.167 0 01-.011.065.105.105 0 01-.028.043.094.094 0 01-.041.024.151.151 0 01-.05.008.121.121 0 01-.092-.041.141.141 0 01-.038-.097.144.144 0 01.038-.098.148.148 0 01.041-.029.121.121 0 01.051-.011C.3.123.33.134.355.156.38.179.393.213.394.259z"/></symbol><symbol id="M"><path d="M.531.742v-.73H.413l-.02.043a.176.176 0 00-.064-.04.239.239 0 00-.26.061.284.284 0 00-.051.083.288.288 0 00.051.286.233.233 0 00.078.056c.03.014.063.021.098.021A.284.284 0 00.328.511.162.162 0 00.393.474v.268h.138M.393.259a.182.182 0 01-.01.065.105.105 0 01-.07.067.151.151 0 01-.05.008.121.121 0 01-.092-.041.141.141 0 01-.037-.097.144.144 0 01.037-.098.148.148 0 01.041-.029.121.121 0 01.051-.011c.036 0 .066.011.091.033.025.023.038.057.039.103z"/></symbol><symbol id="N"><path d="M.275.51A.218.218 0 00.44.433.28.28 0 00.506.249V0H.371V.169l.001.07a.173.173 0 01-.034.102A.12.12 0 01.3.374a.084.084 0 01-.045.013.11.11 0 01-.044-.009.098.098 0 01-.037-.025.12.12 0 01-.026-.041.174.174 0 01-.009-.059V0H0v.73h.139V.458a.18.18 0 00.059.038.2.2 0 00.077.014z"/></symbol><symbol id="O"><path d="M.259.522a.242.242 0 00.1-.021.254.254 0 00.137-.139.252.252 0 000-.203.27.27 0 00-.055-.083A.253.253 0 00.259 0 .255.255 0 00.02.159a.263.263 0 00.239.363m0-.401A.12.12 0 01.369.2a.155.155 0 01-.026.156.113.113 0 01-.038.031.097.097 0 01-.093 0A.123.123 0 01.173.356.156.156 0 01.147.311a.17.17 0 010-.111.149.149 0 01.026-.042.132.132 0 01.039-.027.112.112 0 01.047-.01z"/></symbol><symbol id="P"><path d="M.258.709V.581H.205V.127h.053V0H0v.127h.053v.454H0v.128h.258z"/></symbol><symbol id="Q"><path d="M.145 0H.007v.496h.138V0M.076.564a.073.073 0 00-.054.022A.073.073 0 000 .64c0 .021.007.04.022.054a.072.072 0 00.054.023C.097.717.116.709.13.694A.073.073 0 00.152.64.073.073 0 00.13.586.073.073 0 00.076.564z"/></symbol><symbol id="R"><path d="M.138.427a.199.199 0 00.054.056.155.155 0 00.041.019.178.178 0 00.052.007.312.312 0 00.079-.012L.351.374a.261.261 0 00-.022.005.159.159 0 01-.02.003.195.195 0 01-.08-.007A.15.15 0 01.182.35.121.121 0 01.15.311.099.099 0 01.138.263V0H0v.496h.125L.138.427z"/></symbol><symbol id="S"><path d="M.259.522A.248.248 0 00.44.44.269.269 0 00.501.195H.147A.175.175 0 01.204.137a.149.149 0 01.08-.023.354.354 0 01.137.025L.467.054a.286.286 0 00-.085-.04.352.352 0 00-.211.006.297.297 0 00-.089.056A.257.257 0 000 .261a.254.254 0 00.158.24.245.245 0 00.101.021m.113-.22a.14.14 0 01-.043.07.104.104 0 01-.07.027.113.113 0 01-.073-.027.137.137 0 01-.044-.07h.23z"/></symbol><symbol id="T"><path d="M.329.271A.128.128 0 00.384.16.126.126 0 00.368.098.16.16 0 00.326.047.214.214 0 00.186 0a.236.236 0 00-.159.063A.138.138 0 000 .107a4.963 4.963 0 00.1.049.093.093 0 01.028-.028A.097.097 0 01.18.116c.023 0 .04.005.05.016.01.01.016.02.016.03C.246.169.242.175.235.18A.083.083 0 01.21.194a.093.093 0 01-.033.008.149.149 0 00-.03.006.237.237 0 00-.083.034.165.165 0 00-.041.044.103.103 0 00-.015.042.673.673 0 00-.001.032c0 .021.005.042.014.061.01.02.022.036.038.05A.19.19 0 00.245.51.191.191 0 00.296.485.163.163 0 00.36.398L.253.362a.053.053 0 01-.025.029.073.073 0 01-.039.011.044.044 0 01-.034-.014C.146.378.142.369.142.36c0-.011.004-.02.012-.027A.09.09 0 01.182.32 1.22 1.22 0 00.284.295.191.191 0 00.329.271z"/></symbol><symbol id="U"><path d="M.257.496c.019 0 .04-.003.062-.008A.17.17 0 00.433.397.212.212 0 00.454.296V0H.315v.291A.087.087 0 01.307.33a.058.058 0 01-.02.025.107.107 0 01-.06.019.098.098 0 01-.029-.005.09.09 0 01-.029-.014.084.084 0 01-.022-.026.076.076 0 01-.009-.038V0H0v.496h.118l.02-.038a.205.205 0 00.119.038z"/></symbol><symbol id="V"><path d="M.209.197C.209.174.216.156.23.143A.084.084 0 01.287.124c.019 0 .037.004.056.011V.019A.41.41 0 00.234 0a.228.228 0 00-.061.008.139.139 0 00-.052.027.144.144 0 00-.037.052.222.222 0 00-.013.081v.224H0v.093l.071.03v.111h.138V.515h.134V.392H.209V.197z"/></symbol><use xlink:href="#K" transform="matrix(9.38058 0 0 -9.38058 86.409 63.448)" fill="#fff"/><use xlink:href="#L" transform="matrix(9.38058 0 0 -9.38058 91.595 63.56)" fill="#fff"/><use xlink:href="#M" transform="matrix(9.38058 0 0 -9.38058 97.128 63.56)" fill="#fff"/><use xlink:href="#N" transform="matrix(9.38058 0 0 -9.38058 102.96 63.448)" fill="#fff"/><use xlink:href="#O" transform="matrix(9.38058 0 0 -9.38058 108.147 63.56)" fill="#fff"/><use xlink:href="#P" transform="matrix(9.38058 0 0 -9.38058 113.69 63.448)" fill="#fff"/><use xlink:href="#J" transform="matrix(9.38058 0 0 -9.38058 116.981 63.448)" fill="#fff"/><use xlink:href="#I" transform="matrix(9.38058 0 0 -9.38058 123.836 63.448)" fill="#fff"/><use xlink:href="#Q" transform="matrix(9.38058 0 0 -9.38058 130.26 63.448)" fill="#fff"/><use xlink:href="#L" transform="matrix(9.38058 0 0 -9.38058 132.464 63.56)" fill="#fff"/><use xlink:href="#B" transform="matrix(9.38058 0 0 -9.38058 137.866 63.448)" fill="#fff"/><use xlink:href="#K" transform="matrix(9.38058 0 0 -9.38058 140.886 63.448)" fill="#fff"/><use xlink:href="#R" transform="matrix(9.38058 0 0 -9.38058 146.175 63.448)" fill="#fff"/><use xlink:href="#S" transform="matrix(9.38058 0 0 -9.38058 149.926 63.56)" fill="#fff"/><use xlink:href="#T" transform="matrix(9.38058 0 0 -9.38058 155.506 63.55)" fill="#fff"/><use xlink:href="#S" transform="matrix(9.38058 0 0 -9.38058 159.66 63.56)" fill="#fff"/><use xlink:href="#U" transform="matrix(9.38058 0 0 -9.38058 165.381 63.448)" fill="#fff"/><use xlink:href="#V" transform="matrix(9.38058 0 0 -9.38058 170.201 63.626)" fill="#fff"/></g></svg>