<?xml version="1.0" encoding="UTF-8"?>
<svg xmlns="http://www.w3.org/2000/svg" xmlns:xlink="http://www.w3.org/1999/xlink" width="240.75pt" height="141.750002pt" viewBox="0 0 240.75 141.750002" version="1.1">
<defs>
<clipPath id="clip1">
  <path d="M 0 0 L 240.75 0 L 240.75 141.75 L 0 141.75 Z M 0 0 "/>
</clipPath>
<clipPath id="clip2">
  <path d="M 92 79 L 240.75 79 L 240.75 141.75 L 92 141.75 Z M 92 79 "/>
</clipPath>
<filter id="alpha" filterUnits="objectBoundingBox" x="0%" y="0%" width="100%" height="100%">
  <feColorMatrix type="matrix" in="SourceGraphic" values="0 0 0 0 1 0 0 0 0 1 0 0 0 0 1 0 0 0 1 0"/>
</filter>
<mask id="mask0">
  <g filter="url(#alpha)">
<rect x="0" y="0" width="240.75" height="141.750002" style="fill:rgb(0%,0%,0%);fill-opacity:0.6588;stroke:none;"/>
  </g>
</mask>
<clipPath id="clip4">
  <path d="M 3 7 L 148.75 7 L 148.75 62.75 L 3 62.75 Z M 3 7 "/>
</clipPath>
<clipPath id="clip3">
  <rect width="149" height="63"/>
</clipPath>
<g id="surface4" clip-path="url(#clip3)">
<path style=" stroke:none;fill-rule:nonzero;fill:rgb(89.019775%,95.689392%,100%);fill-opacity:1;" d="M 76.410156 22.902344 C 76.371094 23.308594 76.410156 23.675781 76.574219 24.085938 C 77.105469 25.511719 78.699219 26.246094 80.128906 25.714844 C 81.558594 25.1875 82.296875 23.59375 81.765625 22.167969 C 81.558594 21.636719 81.234375 21.230469 80.867188 20.941406 C 82.171875 19.433594 82.664063 17.273438 81.929688 15.230469 C 80.824219 12.253906 77.554688 10.746094 74.613281 11.847656 C 71.628906 12.949219 70.117188 16.210938 71.21875 19.148438 C 71.996094 21.433594 74.121094 22.859375 76.410156 22.902344 Z M 76.410156 22.902344 "/>
<path style=" stroke:none;fill-rule:nonzero;fill:rgb(89.019775%,95.689392%,100%);fill-opacity:1;" d="M 90.730469 22.972656 C 90.628906 22.703125 90.558594 22.429688 90.515625 22.144531 C 90.46875 21.863281 90.453125 21.578125 90.464844 21.289063 C 90.476563 21.003906 90.519531 20.722656 90.585938 20.441406 C 90.652344 20.164063 90.746094 19.894531 90.867188 19.636719 C 90.988281 19.375 91.132813 19.128906 91.304688 18.898438 C 91.472656 18.667969 91.664063 18.453125 91.875 18.257813 C 92.085938 18.066406 92.3125 17.894531 92.558594 17.746094 C 92.804688 17.59375 93.0625 17.472656 93.332031 17.375 C 93.601563 17.273438 93.878906 17.203125 94.160156 17.160156 C 94.445313 17.113281 94.730469 17.097656 95.015625 17.109375 C 95.304688 17.121094 95.585938 17.160156 95.867188 17.230469 C 96.144531 17.296875 96.414063 17.390625 96.675781 17.511719 C 96.9375 17.632813 97.183594 17.777344 97.414063 17.945313 C 97.644531 18.113281 97.859375 18.304688 98.054688 18.515625 C 98.246094 18.726563 98.417969 18.953125 98.570313 19.199219 C 98.71875 19.445313 98.84375 19.699219 98.941406 19.96875 C 99.039063 20.238281 99.113281 20.515625 99.15625 20.796875 C 99.199219 21.082031 99.214844 21.367188 99.203125 21.652344 C 99.191406 21.9375 99.152344 22.222656 99.085938 22.5 C 99.019531 22.777344 98.921875 23.046875 98.800781 23.308594 C 98.683594 23.566406 98.535156 23.8125 98.367188 24.046875 C 98.199219 24.277344 98.007813 24.488281 97.796875 24.683594 C 97.585938 24.878906 97.355469 25.050781 97.113281 25.199219 C 96.867188 25.347656 96.609375 25.472656 96.339844 25.570313 C 96.070313 25.667969 95.792969 25.738281 95.511719 25.785156 C 95.226563 25.828125 94.941406 25.84375 94.652344 25.832031 C 94.367188 25.820313 94.085938 25.78125 93.804688 25.714844 C 93.527344 25.644531 93.257813 25.550781 92.996094 25.429688 C 92.734375 25.3125 92.488281 25.167969 92.257813 24.996094 C 92.023438 24.828125 91.8125 24.636719 91.617188 24.425781 C 91.421875 24.214844 91.25 23.988281 91.101563 23.742188 C 90.953125 23.5 90.828125 23.242188 90.730469 22.972656 Z M 90.730469 22.972656 "/>
<path style=" stroke:none;fill-rule:nonzero;fill:rgb(89.019775%,95.689392%,100%);fill-opacity:1;" d="M 28.40625 14.605469 C 28.304688 14.339844 28.234375 14.0625 28.191406 13.777344 C 28.144531 13.496094 28.128906 13.210938 28.140625 12.925781 C 28.152344 12.636719 28.195313 12.355469 28.261719 12.078125 C 28.328125 11.796875 28.421875 11.53125 28.542969 11.269531 C 28.664063 11.007813 28.808594 10.765625 28.980469 10.53125 C 29.148438 10.300781 29.339844 10.089844 29.550781 9.894531 C 29.761719 9.699219 29.988281 9.527344 30.234375 9.378906 C 30.480469 9.230469 30.738281 9.105469 31.007813 9.007813 C 31.277344 8.910156 31.554688 8.835938 31.835938 8.792969 C 32.121094 8.75 32.40625 8.734375 32.691406 8.746094 C 32.980469 8.757813 33.261719 8.796875 33.542969 8.863281 C 33.820313 8.929688 34.089844 9.027344 34.351563 9.144531 C 34.613281 9.265625 34.859375 9.410156 35.089844 9.582031 C 35.320313 9.75 35.535156 9.9375 35.730469 10.148438 C 35.921875 10.359375 36.09375 10.589844 36.246094 10.832031 C 36.394531 11.078125 36.519531 11.335938 36.617188 11.605469 C 36.714844 11.875 36.789063 12.148438 36.832031 12.433594 C 36.875 12.714844 36.890625 13 36.878906 13.289063 C 36.867188 13.574219 36.828125 13.855469 36.761719 14.132813 C 36.695313 14.414063 36.597656 14.683594 36.480469 14.941406 C 36.359375 15.203125 36.210938 15.449219 36.042969 15.679688 C 35.875 15.910156 35.683594 16.125 35.472656 16.316406 C 35.261719 16.511719 35.03125 16.683594 34.789063 16.832031 C 34.542969 16.980469 34.285156 17.105469 34.015625 17.203125 C 33.746094 17.304688 33.46875 17.375 33.1875 17.417969 C 32.902344 17.460938 32.617188 17.480469 32.328125 17.46875 C 32.042969 17.457031 31.761719 17.414063 31.480469 17.347656 C 31.203125 17.28125 30.933594 17.1875 30.671875 17.066406 C 30.410156 16.945313 30.164063 16.800781 29.933594 16.632813 C 29.699219 16.460938 29.488281 16.273438 29.292969 16.0625 C 29.097656 15.851563 28.925781 15.621094 28.777344 15.378906 C 28.628906 15.132813 28.503906 14.875 28.40625 14.605469 Z M 28.40625 14.605469 "/>
<path style=" stroke:none;fill-rule:nonzero;fill:rgb(89.019775%,95.689392%,100%);fill-opacity:1;" d="M 48.132813 6.507813 C 47.972656 6.074219 47.902344 5.628906 47.921875 5.171875 C 47.941406 4.710938 48.046875 4.273438 48.242188 3.855469 C 48.433594 3.4375 48.703125 3.074219 49.039063 2.761719 C 49.378906 2.453125 49.765625 2.21875 50.199219 2.058594 C 50.628906 1.902344 51.078125 1.832031 51.535156 1.851563 C 51.996094 1.871094 52.4375 1.976563 52.855469 2.167969 C 53.273438 2.363281 53.636719 2.628906 53.949219 2.964844 C 54.261719 3.304688 54.496094 3.691406 54.65625 4.121094 C 54.8125 4.554688 54.882813 5 54.863281 5.457031 C 54.84375 5.917969 54.738281 6.355469 54.542969 6.773438 C 54.351563 7.191406 54.085938 7.554688 53.746094 7.867188 C 53.40625 8.175781 53.019531 8.414063 52.585938 8.570313 C 52.15625 8.730469 51.707031 8.796875 51.25 8.777344 C 50.789063 8.761719 50.347656 8.652344 49.929688 8.460938 C 49.511719 8.265625 49.148438 8 48.835938 7.664063 C 48.523438 7.324219 48.289063 6.9375 48.132813 6.507813 Z M 48.132813 6.507813 "/>
<g clip-path="url(#clip4)" clip-rule="nonzero">
<path style=" stroke:none;fill-rule:nonzero;fill:rgb(89.019775%,95.689392%,100%);fill-opacity:1;" d="M 10.652344 42.808594 C 10.367188 42.847656 10.082031 42.929688 9.796875 43.011719 C 7.507813 43.828125 6.363281 46.355469 7.179688 48.601563 C 7.996094 50.886719 10.53125 52.027344 12.78125 51.210938 C 12.941406 51.128906 13.105469 51.089844 13.269531 51.007813 C 13.554688 52.761719 14.003906 54.554688 14.617188 56.269531 C 14.945313 57.125 15.3125 57.984375 15.679688 58.796875 C 15.066406 58.878906 14.453125 59.042969 13.882813 59.289063 C 8.855469 61.125 6.242188 66.710938 8.078125 71.769531 C 9.917969 76.789063 15.515625 79.398438 20.585938 77.5625 C 22.585938 76.828125 24.222656 75.484375 25.324219 73.808594 C 25.367188 74.054688 25.449219 74.300781 25.53125 74.503906 C 26.632813 77.480469 29.902344 78.992188 32.84375 77.890625 C 33.949219 77.480469 34.847656 76.789063 35.460938 75.929688 C 36.359375 77.195313 37.996094 77.765625 39.507813 77.195313 C 39.507813 77.195313 39.546875 77.195313 39.546875 77.15625 C 39.628906 77.523438 39.753906 77.847656 39.875 78.214844 C 41.878906 83.722656 47.394531 86.945313 52.992188 86.292969 C 52.871094 86.90625 52.871094 87.597656 53.117188 88.210938 C 53.769531 90.003906 55.773438 90.941406 57.570313 90.289063 C 59.367188 89.636719 60.308594 87.640625 59.65625 85.84375 C 59.410156 85.191406 59 84.660156 58.511719 84.292969 C 59.246094 83.804688 59.941406 83.234375 60.554688 82.621094 C 62.066406 84.171875 64.394531 84.824219 66.5625 84.007813 C 67.257813 83.761719 67.828125 83.394531 68.359375 82.949219 C 66.601563 85.476563 66.070313 88.78125 67.175781 91.839844 C 68.484375 95.472656 71.753906 97.796875 75.347656 98.164063 C 74.039063 99.019531 73.46875 100.691406 74.039063 102.242188 C 74.695313 104.039063 76.695313 104.976563 78.496094 104.324219 C 80.292969 103.671875 81.234375 101.671875 80.578125 99.875 C 80.253906 98.980469 79.597656 98.285156 78.78125 97.917969 C 79.066406 97.835938 79.394531 97.753906 79.679688 97.632813 C 81.191406 97.101563 82.460938 96.207031 83.480469 95.105469 C 84.503906 95.59375 85.730469 95.675781 86.875 95.265625 C 87.609375 94.980469 88.261719 94.53125 88.710938 93.960938 C 91.164063 99.46875 97.5 102.203125 103.261719 100.121094 C 109.226563 97.960938 112.292969 91.390625 110.167969 85.4375 C 111.230469 85.679688 112.375 85.640625 113.4375 85.273438 C 115.601563 84.496094 116.992188 82.5 117.117188 80.335938 C 117.402344 80.132813 117.6875 79.929688 117.933594 79.644531 C 119.160156 84.945313 123.777344 88.945313 129.335938 89.230469 C 127.578125 91.390625 126.515625 94.125 126.515625 97.101563 C 126.515625 103.957031 132.113281 109.542969 138.980469 109.542969 C 143.476563 109.542969 147.398438 107.179688 149.605469 103.628906 C 153.367188 105.585938 157.617188 106.6875 162.152344 106.6875 C 164.113281 106.6875 165.992188 106.484375 167.832031 106.078125 C 169.589844 111.136719 174.289063 114.765625 179.847656 114.765625 C 186.714844 114.765625 192.3125 109.21875 192.3125 102.324219 C 192.3125 98.898438 190.921875 95.796875 188.675781 93.554688 C 188.960938 93.59375 189.246094 93.636719 189.574219 93.636719 C 191.984375 93.636719 193.949219 91.675781 193.949219 89.269531 C 193.949219 86.863281 191.984375 84.90625 189.574219 84.90625 C 189.371094 84.90625 189.207031 84.90625 189.042969 84.945313 C 189.410156 83.191406 189.574219 81.398438 189.574219 79.519531 C 189.574219 78.582031 189.535156 77.683594 189.453125 76.789063 C 190.066406 76.910156 190.679688 76.953125 191.292969 76.953125 C 196.6875 76.953125 201.019531 72.585938 201.019531 67.242188 C 201.019531 61.859375 196.644531 57.535156 191.292969 57.535156 C 189.125 57.535156 187.164063 58.226563 185.527344 59.410156 C 185.570313 59.164063 185.570313 58.921875 185.570313 58.675781 C 185.570313 55.535156 182.996094 52.964844 179.847656 52.964844 C 178.664063 52.964844 177.601563 53.332031 176.699219 53.902344 C 176.292969 52.394531 174.945313 51.292969 173.351563 51.292969 C 173.351563 51.292969 173.308594 51.292969 173.308594 51.292969 C 173.351563 50.925781 173.351563 50.558594 173.351563 50.191406 C 173.351563 44.316406 169.304688 39.421875 163.828125 38.117188 C 164.15625 37.585938 164.359375 36.933594 164.359375 36.28125 C 164.359375 34.363281 162.804688 32.8125 160.886719 32.8125 C 158.964844 32.8125 157.410156 34.363281 157.410156 36.28125 C 157.410156 36.976563 157.617188 37.585938 157.941406 38.117188 C 157.085938 38.320313 156.226563 38.605469 155.449219 39.015625 C 154.589844 37.015625 152.589844 35.628906 150.300781 35.628906 C 149.566406 35.628906 148.871094 35.75 148.257813 36.035156 C 150.789063 34.28125 152.425781 31.386719 152.425781 28.082031 C 152.425781 24.246094 150.179688 20.902344 146.910156 19.351563 C 148.421875 18.984375 149.566406 17.597656 149.566406 15.964844 C 149.566406 14.050781 148.011719 12.5 146.089844 12.5 C 144.171875 12.5 142.617188 14.050781 142.617188 15.964844 C 142.617188 16.90625 142.984375 17.800781 143.640625 18.414063 C 143.3125 18.375 143.027344 18.375 142.699219 18.375 C 141.105469 18.375 139.59375 18.78125 138.246094 19.433594 C 137.46875 18.617188 136.324219 18.128906 135.097656 18.128906 C 134.320313 18.128906 133.542969 18.332031 132.929688 18.699219 C 132.523438 12.703125 127.535156 7.929688 121.40625 7.929688 C 115.070313 7.929688 109.921875 13.03125 109.839844 19.3125 C 108.941406 18.699219 107.878906 18.332031 106.695313 18.332031 C 106.328125 18.332031 106 18.375 105.671875 18.414063 C 104.9375 17.800781 103.914063 17.558594 102.933594 17.925781 C 101.503906 18.453125 100.769531 20.046875 101.300781 21.472656 C 101.339844 21.597656 101.421875 21.757813 101.464844 21.882813 C 101.21875 22.535156 101.054688 23.226563 101.054688 23.960938 C 101.054688 24.289063 101.09375 24.574219 101.136719 24.859375 C 100.15625 24.980469 99.175781 25.1875 98.195313 25.554688 C 95.375 26.574219 93.167969 28.53125 91.738281 30.898438 C 90.304688 28.695313 87.527344 27.714844 84.953125 28.652344 C 83.480469 29.183594 82.335938 30.285156 81.722656 31.632813 C 78.742188 27.101563 73.058594 24.898438 67.707031 26.53125 C 68.605469 23.921875 68.644531 20.984375 67.625 18.167969 C 65.253906 11.722656 58.101563 8.421875 51.644531 10.746094 C 47.433594 12.296875 44.535156 15.886719 43.714844 19.964844 C 39.507813 19.433594 35.132813 19.84375 30.882813 21.390625 C 29.042969 22.042969 27.371094 22.902344 25.777344 23.878906 C 22.546875 19.71875 16.867188 17.925781 11.636719 19.800781 C 5.179688 22.167969 1.867188 29.304688 4.238281 35.75 C 5.421875 39.015625 7.792969 41.460938 10.652344 42.808594 Z M 10.652344 42.808594 "/>
</g>
<path style=" stroke:none;fill-rule:nonzero;fill:rgb(89.019775%,95.689392%,100%);fill-opacity:1;" d="M 2.074219 57.757813 C 1.914063 57.324219 1.84375 56.878906 1.863281 56.417969 C 1.882813 55.960938 1.988281 55.523438 2.183594 55.105469 C 2.378906 54.6875 2.644531 54.324219 2.980469 54.011719 C 3.320313 53.699219 3.707031 53.464844 4.140625 53.308594 C 4.570313 53.148438 5.019531 53.078125 5.480469 53.097656 C 5.9375 53.117188 6.378906 53.222656 6.796875 53.417969 C 7.214844 53.609375 7.578125 53.878906 7.890625 54.214844 C 8.203125 54.554688 8.4375 54.9375 8.597656 55.371094 C 8.753906 55.800781 8.824219 56.246094 8.804688 56.707031 C 8.785156 57.167969 8.679688 57.605469 8.484375 58.023438 C 8.292969 58.4375 8.027344 58.804688 7.6875 59.113281 C 7.347656 59.425781 6.960938 59.660156 6.53125 59.820313 C 6.097656 59.976563 5.652344 60.046875 5.191406 60.027344 C 4.730469 60.007813 4.292969 59.902344 3.875 59.707031 C 3.457031 59.515625 3.089844 59.25 2.777344 58.910156 C 2.464844 58.574219 2.230469 58.1875 2.074219 57.757813 Z M 2.074219 57.757813 "/>
<path style=" stroke:none;fill-rule:nonzero;fill:rgb(89.019775%,95.689392%,100%);fill-opacity:1;" d="M 19.214844 11.546875 C 19.136719 11.328125 19.101563 11.101563 19.109375 10.871094 C 19.121094 10.636719 19.175781 10.414063 19.273438 10.203125 C 19.371094 9.992188 19.503906 9.808594 19.675781 9.652344 C 19.847656 9.496094 20.042969 9.375 20.261719 9.296875 C 20.480469 9.214844 20.707031 9.179688 20.9375 9.191406 C 21.171875 9.199219 21.394531 9.253906 21.605469 9.351563 C 21.816406 9.449219 22 9.582031 22.160156 9.753906 C 22.316406 9.925781 22.4375 10.121094 22.515625 10.339844 C 22.597656 10.558594 22.632813 10.78125 22.621094 11.015625 C 22.613281 11.246094 22.558594 11.46875 22.460938 11.679688 C 22.363281 11.890625 22.226563 12.074219 22.054688 12.234375 C 21.886719 12.390625 21.691406 12.511719 21.472656 12.589844 C 21.253906 12.667969 21.027344 12.703125 20.792969 12.695313 C 20.5625 12.6875 20.339844 12.632813 20.128906 12.535156 C 19.914063 12.4375 19.730469 12.300781 19.574219 12.128906 C 19.414063 11.960938 19.296875 11.765625 19.214844 11.546875 Z M 19.214844 11.546875 "/>
<path style=" stroke:none;fill-rule:nonzero;fill:rgb(89.019775%,95.689392%,100%);fill-opacity:1;" d="M 103.179688 12.5 C 103.179688 12.265625 103.222656 12.042969 103.3125 11.828125 C 103.402344 11.613281 103.53125 11.421875 103.695313 11.257813 C 103.859375 11.09375 104.050781 10.96875 104.265625 10.878906 C 104.480469 10.789063 104.703125 10.746094 104.9375 10.746094 C 105.167969 10.746094 105.394531 10.789063 105.609375 10.878906 C 105.824219 10.96875 106.015625 11.09375 106.179688 11.257813 C 106.34375 11.421875 106.472656 11.613281 106.558594 11.828125 C 106.648438 12.042969 106.695313 12.265625 106.695313 12.5 C 106.695313 12.730469 106.648438 12.957031 106.558594 13.171875 C 106.472656 13.386719 106.34375 13.574219 106.179688 13.738281 C 106.015625 13.902344 105.824219 14.03125 105.609375 14.121094 C 105.394531 14.207031 105.167969 14.253906 104.9375 14.253906 C 104.703125 14.253906 104.480469 14.207031 104.265625 14.121094 C 104.050781 14.03125 103.859375 13.902344 103.695313 13.738281 C 103.53125 13.574219 103.402344 13.386719 103.3125 13.171875 C 103.222656 12.957031 103.179688 12.730469 103.179688 12.5 Z M 103.179688 12.5 "/>
</g>
<clipPath id="clip5">
  <path d="M 0 83 L 157 83 L 157 141.75 L 0 141.75 Z M 0 83 "/>
</clipPath>
<clipPath id="clip6">
  <path d="M 151 136 L 159 136 L 159 141.75 L 151 141.75 Z M 151 136 "/>
</clipPath>
<clipPath id="clip7">
  <path d="M 186.113281 32.976563 L 216.894531 32.976563 L 216.894531 63.757813 L 186.113281 63.757813 Z M 186.113281 32.976563 "/>
</clipPath>
<clipPath id="clip8">
  <path d="M 179.445313 37.164063 L 192.957031 37.164063 L 192.957031 50.679688 L 179.445313 50.679688 Z M 179.445313 37.164063 "/>
</clipPath>
<clipPath id="clip9">
  <path d="M 207.207031 58.304688 L 215.46875 58.304688 L 215.46875 66.5625 L 207.207031 66.5625 Z M 207.207031 58.304688 "/>
</clipPath>
<clipPath id="clip10">
  <path d="M 198.390625 69.363281 L 205.148438 69.363281 L 205.148438 76.121094 L 198.390625 76.121094 Z M 198.390625 69.363281 "/>
</clipPath>
</defs>
<g id="surface1">
<g clip-path="url(#clip1)" clip-rule="nonzero">
<rect x="0" y="0" width="240.75" height="141.750002" style="fill:rgb(100%,100%,100%);fill-opacity:1;stroke:none;"/>
<path style=" stroke:none;fill-rule:nonzero;fill:rgb(100%,100%,100%);fill-opacity:1;" d="M 0 0 L 241 0 L 241 141.898438 L 0 141.898438 Z M 0 0 "/>
<path style=" stroke:none;fill-rule:nonzero;fill:rgb(31.759644%,57.249451%,64.309692%);fill-opacity:1;" d="M 0 0 L 241 0 L 241 141.898438 L 0 141.898438 Z M 0 0 "/>
</g>
<g clip-path="url(#clip2)" clip-rule="nonzero">
<use xlink:href="#surface4" transform="matrix(1,0,0,1,92,79)" mask="url(#mask0)"/>
</g>
<g clip-path="url(#clip5)" clip-rule="nonzero">
<path style=" stroke:none;fill-rule:nonzero;fill:rgb(81.17981%,100%,94.898987%);fill-opacity:1;" d="M 149.597656 153.179688 C 149.875 153.136719 150.148438 153.058594 150.425781 152.980469 C 152.628906 152.195313 153.730469 149.757813 152.945313 147.597656 C 152.15625 145.398438 149.714844 144.296875 147.550781 145.082031 C 147.394531 145.164063 147.238281 145.203125 147.078125 145.28125 C 146.804688 143.589844 146.371094 141.863281 145.78125 140.210938 C 145.464844 139.386719 145.113281 138.5625 144.757813 137.777344 C 145.347656 137.699219 145.9375 137.539063 146.488281 137.304688 C 151.328125 135.535156 153.847656 130.152344 152.078125 125.28125 C 150.308594 120.449219 144.914063 117.933594 140.035156 119.703125 C 138.105469 120.410156 136.53125 121.707031 135.46875 123.316406 C 135.429688 123.082031 135.351563 122.84375 135.273438 122.648438 C 134.210938 119.78125 131.0625 118.328125 128.230469 119.386719 C 127.167969 119.78125 126.300781 120.449219 125.710938 121.273438 C 124.84375 120.054688 123.269531 119.503906 121.8125 120.054688 C 121.8125 120.054688 121.773438 120.054688 121.773438 120.09375 C 121.695313 119.742188 121.578125 119.425781 121.460938 119.074219 C 119.53125 113.769531 114.21875 110.664063 108.828125 111.292969 C 108.945313 110.703125 108.945313 110.035156 108.707031 109.445313 C 108.078125 107.71875 106.152344 106.816406 104.417969 107.445313 C 102.6875 108.070313 101.78125 109.996094 102.414063 111.726563 C 102.648438 112.355469 103.042969 112.867188 103.515625 113.21875 C 102.804688 113.691406 102.136719 114.242188 101.546875 114.828125 C 100.089844 113.335938 97.847656 112.707031 95.761719 113.496094 C 95.09375 113.730469 94.542969 114.082031 94.03125 114.515625 C 95.722656 112.078125 96.234375 108.898438 95.171875 105.949219 C 93.910156 102.453125 90.761719 100.214844 87.300781 99.859375 C 88.558594 99.035156 89.109375 97.425781 88.558594 95.929688 C 87.929688 94.203125 86 93.296875 84.269531 93.925781 C 82.539063 94.554688 81.632813 96.480469 82.261719 98.210938 C 82.578125 99.074219 83.207031 99.742188 83.996094 100.097656 C 83.71875 100.175781 83.402344 100.253906 83.128906 100.371094 C 81.671875 100.882813 80.453125 101.746094 79.46875 102.808594 C 78.484375 102.335938 77.304688 102.257813 76.203125 102.648438 C 75.492188 102.925781 74.863281 103.355469 74.429688 103.90625 C 72.070313 98.601563 65.96875 95.96875 60.421875 97.972656 C 54.675781 100.058594 51.722656 106.382813 53.769531 112.117188 C 52.746094 111.882813 51.644531 111.921875 50.621094 112.277344 C 48.535156 113.023438 47.199219 114.949219 47.078125 117.03125 C 46.804688 117.226563 46.527344 117.421875 46.292969 117.699219 C 45.113281 112.589844 40.664063 108.738281 35.3125 108.464844 C 37.003906 106.382813 38.027344 103.75 38.027344 100.882813 C 38.027344 94.28125 32.636719 88.898438 26.023438 88.898438 C 21.695313 88.898438 17.917969 91.175781 15.792969 94.59375 C 12.171875 92.710938 8.078125 91.648438 3.710938 91.648438 C 1.820313 91.648438 0.0117188 91.84375 -1.757813 92.238281 C -3.453125 87.367188 -7.976563 83.867188 -13.328125 83.867188 C -19.941406 83.867188 -25.332031 89.210938 -25.332031 95.851563 C -25.332031 99.152344 -23.996094 102.140625 -21.832031 104.300781 C -22.105469 104.261719 -22.382813 104.222656 -22.695313 104.222656 C -25.019531 104.222656 -26.90625 106.109375 -26.90625 108.425781 C -26.90625 110.742188 -25.019531 112.628906 -22.695313 112.628906 C -22.5 112.628906 -22.34375 112.628906 -22.183594 112.589844 C -22.539063 114.28125 -22.695313 116.007813 -22.695313 117.816406 C -22.695313 118.71875 -22.65625 119.585938 -22.578125 120.449219 C -23.167969 120.332031 -23.757813 120.292969 -24.347656 120.292969 C -29.542969 120.292969 -33.714844 124.496094 -33.714844 129.644531 C -33.714844 134.828125 -29.503906 138.992188 -24.347656 138.992188 C -22.261719 138.992188 -20.375 138.324219 -18.800781 137.1875 C -18.839844 137.421875 -18.839844 137.65625 -18.839844 137.894531 C -18.839844 140.917969 -16.359375 143.394531 -13.328125 143.394531 C -12.1875 143.394531 -11.164063 143.039063 -10.300781 142.492188 C -9.90625 143.945313 -8.605469 145.003906 -7.070313 145.003906 C -7.070313 145.003906 -7.03125 145.003906 -7.03125 145.003906 C -7.070313 145.359375 -7.070313 145.710938 -7.070313 146.066406 C -7.070313 151.722656 -3.175781 156.4375 2.097656 157.695313 C 1.78125 158.207031 1.585938 158.835938 1.585938 159.464844 C 1.585938 161.3125 3.082031 162.804688 4.929688 162.804688 C 6.78125 162.804688 8.277344 161.3125 8.277344 159.464844 C 8.277344 158.796875 8.078125 158.207031 7.765625 157.695313 C 8.589844 157.5 9.417969 157.226563 10.164063 156.832031 C 10.992188 158.757813 12.917969 160.09375 15.125 160.09375 C 15.832031 160.09375 16.5 159.976563 17.089844 159.699219 C 14.652344 161.390625 13.078125 164.179688 13.078125 167.363281 C 13.078125 171.054688 15.242188 174.277344 18.390625 175.769531 C 16.933594 176.125 15.832031 177.460938 15.832031 179.03125 C 15.832031 180.878906 17.328125 182.371094 19.175781 182.371094 C 21.027344 182.371094 22.523438 180.878906 22.523438 179.03125 C 22.523438 178.128906 22.167969 177.261719 21.539063 176.671875 C 21.851563 176.714844 22.128906 176.714844 22.445313 176.714844 C 23.980469 176.714844 25.433594 176.320313 26.734375 175.691406 C 27.480469 176.476563 28.582031 176.949219 29.761719 176.949219 C 30.511719 176.949219 31.257813 176.753906 31.847656 176.398438 C 32.242188 182.175781 37.042969 186.769531 42.949219 186.769531 C 49.046875 186.769531 54.007813 181.859375 54.085938 175.808594 C 54.949219 176.398438 55.972656 176.753906 57.113281 176.753906 C 57.46875 176.753906 57.785156 176.714844 58.097656 176.671875 C 58.808594 177.261719 59.792969 177.5 60.734375 177.144531 C 62.113281 176.632813 62.820313 175.101563 62.308594 173.726563 C 62.269531 173.609375 62.191406 173.453125 62.152344 173.335938 C 62.386719 172.707031 62.546875 172.039063 62.546875 171.332031 C 62.546875 171.015625 62.507813 170.742188 62.46875 170.464844 C 63.410156 170.347656 64.355469 170.152344 65.300781 169.796875 C 68.015625 168.816406 70.140625 166.929688 71.519531 164.652344 C 72.894531 166.773438 75.574219 167.714844 78.050781 166.8125 C 79.46875 166.300781 80.570313 165.238281 81.160156 163.945313 C 84.035156 168.304688 89.503906 170.425781 94.660156 168.855469 C 93.792969 171.371094 93.753906 174.199219 94.738281 176.910156 C 97.019531 183.117188 103.90625 186.300781 110.125 184.058594 C 114.179688 182.566406 116.972656 179.109375 117.761719 175.179688 C 121.8125 175.691406 126.023438 175.296875 130.117188 173.804688 C 131.890625 173.175781 133.503906 172.351563 135.039063 171.410156 C 138.144531 175.417969 143.617188 177.144531 148.652344 175.335938 C 154.871094 173.058594 158.058594 166.183594 155.777344 159.976563 C 154.636719 156.832031 152.351563 154.472656 149.597656 153.179688 Z M 149.597656 153.179688 "/>
</g>
<g clip-path="url(#clip6)" clip-rule="nonzero">
<path style=" stroke:none;fill-rule:nonzero;fill:rgb(81.17981%,100%,94.898987%);fill-opacity:1;" d="M 157.863281 138.78125 C 158.015625 139.195313 158.082031 139.625 158.0625 140.066406 C 158.042969 140.511719 157.941406 140.933594 157.753906 141.335938 C 157.570313 141.734375 157.3125 142.085938 156.984375 142.386719 C 156.660156 142.6875 156.289063 142.914063 155.871094 143.066406 C 155.457031 143.21875 155.023438 143.285156 154.582031 143.265625 C 154.140625 143.246094 153.714844 143.144531 153.3125 142.957031 C 152.910156 142.773438 152.558594 142.515625 152.257813 142.191406 C 151.957031 141.863281 151.734375 141.492188 151.578125 141.078125 C 151.425781 140.660156 151.359375 140.234375 151.378906 139.789063 C 151.398438 139.347656 151.5 138.925781 151.6875 138.523438 C 151.871094 138.121094 152.128906 137.769531 152.457031 137.472656 C 152.78125 137.171875 153.152344 136.945313 153.570313 136.792969 C 153.988281 136.640625 154.417969 136.574219 154.859375 136.59375 C 155.304688 136.609375 155.726563 136.710938 156.128906 136.898438 C 156.53125 137.085938 156.882813 137.339844 157.183594 137.667969 C 157.484375 137.992188 157.710938 138.363281 157.863281 138.78125 Z M 157.863281 138.78125 "/>
</g>
<path style=" stroke:none;fill-rule:nonzero;fill:rgb(81.17981%,100%,94.898987%);fill-opacity:1;" d="M 128.097656 109.652344 C 128.175781 109.859375 128.207031 110.078125 128.199219 110.300781 C 128.1875 110.527344 128.136719 110.738281 128.042969 110.941406 C 127.949219 111.144531 127.820313 111.324219 127.652344 111.476563 C 127.488281 111.625 127.300781 111.742188 127.089844 111.816406 C 126.878906 111.894531 126.660156 111.929688 126.4375 111.921875 C 126.214844 111.910156 126 111.859375 125.796875 111.765625 C 125.59375 111.671875 125.414063 111.539063 125.261719 111.375 C 125.109375 111.210938 124.996094 111.023438 124.917969 110.8125 C 124.839844 110.601563 124.808594 110.386719 124.816406 110.160156 C 124.824219 109.9375 124.878906 109.722656 124.972656 109.519531 C 125.066406 109.316406 125.195313 109.140625 125.363281 108.988281 C 125.527344 108.835938 125.714844 108.722656 125.925781 108.644531 C 126.136719 108.566406 126.355469 108.535156 126.578125 108.542969 C 126.800781 108.554688 127.015625 108.605469 127.21875 108.699219 C 127.421875 108.792969 127.601563 108.921875 127.753906 109.085938 C 127.90625 109.253906 128.019531 109.441406 128.097656 109.652344 Z M 128.097656 109.652344 "/>
<path style=" stroke:none;fill-rule:nonzero;fill:rgb(81.17981%,100%,94.898987%);fill-opacity:1;" d="M 101.371094 99.4375 C 101.445313 99.648438 101.480469 99.867188 101.472656 100.089844 C 101.460938 100.3125 101.410156 100.527344 101.316406 100.730469 C 101.222656 100.933594 101.089844 101.109375 100.925781 101.261719 C 100.761719 101.414063 100.574219 101.527344 100.363281 101.605469 C 100.152344 101.683594 99.933594 101.71875 99.710938 101.707031 C 99.484375 101.699219 99.273438 101.648438 99.070313 101.550781 C 98.863281 101.457031 98.6875 101.328125 98.535156 101.164063 C 98.382813 101 98.269531 100.8125 98.191406 100.601563 C 98.113281 100.390625 98.082031 100.171875 98.089844 99.949219 C 98.097656 99.726563 98.152344 99.511719 98.246094 99.308594 C 98.339844 99.105469 98.46875 98.929688 98.632813 98.777344 C 98.800781 98.625 98.988281 98.511719 99.199219 98.433594 C 99.410156 98.355469 99.625 98.324219 99.851563 98.332031 C 100.074219 98.339844 100.289063 98.394531 100.492188 98.488281 C 100.695313 98.582031 100.875 98.710938 101.027344 98.875 C 101.175781 99.039063 101.292969 99.226563 101.371094 99.4375 Z M 101.371094 99.4375 "/>
<path style=" stroke:none;fill-rule:nonzero;fill:rgb(81.17981%,100%,94.898987%);fill-opacity:1;" d="M 44.246094 108.070313 C 44.089844 108.425781 44.011719 108.777344 44.011719 109.210938 C 44.011719 110.664063 45.191406 111.882813 46.6875 111.882813 C 48.140625 111.882813 49.363281 110.703125 49.363281 109.210938 C 49.363281 108.699219 49.203125 108.191406 48.929688 107.796875 C 50.621094 106.855469 51.800781 105.046875 51.800781 102.964844 C 51.800781 99.9375 49.324219 97.464844 46.292969 97.464844 C 43.261719 97.464844 40.78125 99.9375 40.78125 102.964844 C 40.742188 105.28125 42.199219 107.246094 44.246094 108.070313 Z M 44.246094 108.070313 "/>
<path style=" stroke:none;fill-rule:nonzero;fill:rgb(81.17981%,100%,94.898987%);fill-opacity:1;" d="M 11.976563 84.65625 C 11.976563 84.929688 11.949219 85.203125 11.894531 85.476563 C 11.839844 85.746094 11.761719 86.007813 11.65625 86.261719 C 11.550781 86.519531 11.417969 86.761719 11.265625 86.992188 C 11.113281 87.21875 10.9375 87.433594 10.742188 87.628906 C 10.546875 87.824219 10.332031 87.996094 10.105469 88.148438 C 9.875 88.304688 9.632813 88.433594 9.375 88.539063 C 9.121094 88.644531 8.855469 88.722656 8.585938 88.777344 C 8.316406 88.832031 8.039063 88.859375 7.765625 88.859375 C 7.488281 88.859375 7.214844 88.832031 6.941406 88.777344 C 6.671875 88.722656 6.410156 88.644531 6.152344 88.539063 C 5.898438 88.433594 5.65625 88.304688 5.425781 88.148438 C 5.195313 87.996094 4.980469 87.824219 4.785156 87.628906 C 4.589844 87.433594 4.417969 87.21875 4.261719 86.992188 C 4.109375 86.761719 3.980469 86.519531 3.875 86.261719 C 3.769531 86.007813 3.6875 85.746094 3.632813 85.476563 C 3.582031 85.203125 3.554688 84.929688 3.554688 84.65625 C 3.554688 84.378906 3.582031 84.105469 3.632813 83.835938 C 3.6875 83.5625 3.769531 83.300781 3.875 83.046875 C 3.980469 82.789063 4.109375 82.546875 4.261719 82.320313 C 4.417969 82.089844 4.589844 81.878906 4.785156 81.683594 C 4.980469 81.488281 5.195313 81.3125 5.425781 81.160156 C 5.65625 81.003906 5.898438 80.875 6.152344 80.769531 C 6.410156 80.664063 6.671875 80.585938 6.941406 80.53125 C 7.214844 80.476563 7.488281 80.449219 7.765625 80.449219 C 8.039063 80.449219 8.316406 80.476563 8.585938 80.53125 C 8.855469 80.585938 9.121094 80.664063 9.375 80.769531 C 9.632813 80.875 9.875 81.003906 10.105469 81.160156 C 10.332031 81.3125 10.546875 81.488281 10.742188 81.683594 C 10.9375 81.878906 11.113281 82.089844 11.265625 82.320313 C 11.417969 82.546875 11.550781 82.789063 11.65625 83.046875 C 11.761719 83.300781 11.839844 83.5625 11.894531 83.835938 C 11.949219 84.105469 11.976563 84.378906 11.976563 84.65625 Z M 11.976563 84.65625 "/>
<path style=" stroke:none;fill-rule:nonzero;fill:rgb(81.17981%,100%,94.898987%);fill-opacity:1;" d="M 30.785156 83.867188 C 30.785156 84.3125 30.703125 84.738281 30.53125 85.148438 C 30.363281 85.554688 30.121094 85.917969 29.808594 86.230469 C 29.492188 86.542969 29.132813 86.785156 28.722656 86.953125 C 28.3125 87.125 27.886719 87.207031 27.441406 87.207031 C 27 87.207031 26.570313 87.125 26.160156 86.953125 C 25.75 86.785156 25.390625 86.542969 25.078125 86.230469 C 24.761719 85.917969 24.519531 85.554688 24.351563 85.148438 C 24.179688 84.738281 24.097656 84.3125 24.097656 83.867188 C 24.097656 83.425781 24.179688 83 24.351563 82.589844 C 24.519531 82.183594 24.761719 81.820313 25.078125 81.507813 C 25.390625 81.195313 25.75 80.953125 26.160156 80.785156 C 26.570313 80.613281 27 80.527344 27.441406 80.527344 C 27.886719 80.527344 28.3125 80.613281 28.722656 80.785156 C 29.132813 80.953125 29.492188 81.195313 29.808594 81.507813 C 30.121094 81.820313 30.363281 82.183594 30.53125 82.589844 C 30.703125 83 30.785156 83.425781 30.785156 83.867188 Z M 30.785156 83.867188 "/>
<g clip-path="url(#clip7)" clip-rule="nonzero">
<path style=" stroke:none;fill-rule:nonzero;fill:rgb(26.669312%,85.099792%,90.19928%);fill-opacity:1;" d="M 216.894531 48.367188 C 216.894531 49.375 216.796875 50.378906 216.601563 51.367188 C 216.402344 52.359375 216.109375 53.324219 215.722656 54.257813 C 215.335938 55.191406 214.863281 56.078125 214.300781 56.917969 C 213.742188 57.757813 213.101563 58.535156 212.386719 59.25 C 211.671875 59.964844 210.894531 60.601563 210.054688 61.164063 C 209.214844 61.726563 208.328125 62.199219 207.394531 62.585938 C 206.460938 62.972656 205.5 63.265625 204.507813 63.460938 C 203.515625 63.660156 202.515625 63.757813 201.503906 63.757813 C 200.496094 63.757813 199.492188 63.660156 198.503906 63.460938 C 197.511719 63.265625 196.546875 62.972656 195.613281 62.585938 C 194.679688 62.199219 193.792969 61.726563 192.953125 61.164063 C 192.113281 60.601563 191.335938 59.964844 190.621094 59.25 C 189.90625 58.535156 189.269531 57.757813 188.707031 56.917969 C 188.144531 56.078125 187.671875 55.191406 187.285156 54.257813 C 186.898438 53.324219 186.605469 52.359375 186.410156 51.367188 C 186.210938 50.378906 186.113281 49.375 186.113281 48.367188 C 186.113281 47.355469 186.210938 46.355469 186.410156 45.363281 C 186.605469 44.371094 186.898438 43.410156 187.285156 42.476563 C 187.671875 41.542969 188.144531 40.65625 188.707031 39.816406 C 189.269531 38.976563 189.90625 38.199219 190.621094 37.484375 C 191.335938 36.769531 192.113281 36.128906 192.953125 35.570313 C 193.792969 35.007813 194.679688 34.535156 195.613281 34.148438 C 196.546875 33.761719 197.511719 33.46875 198.503906 33.269531 C 199.492188 33.074219 200.496094 32.976563 201.503906 32.976563 C 202.515625 32.976563 203.515625 33.074219 204.507813 33.269531 C 205.5 33.46875 206.460938 33.761719 207.394531 34.148438 C 208.328125 34.535156 209.214844 35.007813 210.054688 35.570313 C 210.894531 36.128906 211.671875 36.769531 212.386719 37.484375 C 213.101563 38.199219 213.742188 38.976563 214.300781 39.816406 C 214.863281 40.65625 215.335938 41.542969 215.722656 42.476563 C 216.109375 43.410156 216.402344 44.371094 216.601563 45.363281 C 216.796875 46.355469 216.894531 47.355469 216.894531 48.367188 Z M 216.894531 48.367188 "/>
</g>
<g clip-path="url(#clip8)" clip-rule="nonzero">
<path style=" stroke:none;fill-rule:nonzero;fill:rgb(26.669312%,85.099792%,90.19928%);fill-opacity:1;" d="M 192.957031 43.921875 C 192.957031 44.367188 192.914063 44.804688 192.828125 45.242188 C 192.742188 45.675781 192.613281 46.097656 192.445313 46.507813 C 192.273438 46.917969 192.066406 47.308594 191.820313 47.675781 C 191.574219 48.046875 191.292969 48.386719 190.980469 48.699219 C 190.664063 49.015625 190.324219 49.292969 189.957031 49.542969 C 189.585938 49.789063 189.195313 49.996094 188.789063 50.164063 C 188.378906 50.335938 187.953125 50.464844 187.519531 50.550781 C 187.085938 50.636719 186.644531 50.679688 186.203125 50.679688 C 185.757813 50.679688 185.316406 50.636719 184.882813 50.550781 C 184.449219 50.464844 184.027344 50.335938 183.617188 50.164063 C 183.207031 49.996094 182.816406 49.789063 182.449219 49.542969 C 182.078125 49.292969 181.738281 49.015625 181.421875 48.699219 C 181.109375 48.386719 180.828125 48.046875 180.582031 47.675781 C 180.335938 47.308594 180.128906 46.917969 179.957031 46.507813 C 179.789063 46.097656 179.660156 45.675781 179.574219 45.242188 C 179.488281 44.804688 179.445313 44.367188 179.445313 43.921875 C 179.445313 43.480469 179.488281 43.039063 179.574219 42.605469 C 179.660156 42.167969 179.789063 41.746094 179.957031 41.335938 C 180.128906 40.925781 180.335938 40.539063 180.582031 40.167969 C 180.828125 39.800781 181.109375 39.457031 181.421875 39.144531 C 181.738281 38.832031 182.078125 38.550781 182.449219 38.304688 C 182.816406 38.058594 183.207031 37.851563 183.617188 37.679688 C 184.027344 37.511719 184.449219 37.382813 184.882813 37.296875 C 185.316406 37.210938 185.757813 37.164063 186.203125 37.164063 C 186.644531 37.164063 187.085938 37.210938 187.519531 37.296875 C 187.953125 37.382813 188.378906 37.511719 188.789063 37.679688 C 189.195313 37.851563 189.585938 38.058594 189.957031 38.304688 C 190.324219 38.550781 190.664063 38.832031 190.980469 39.144531 C 191.292969 39.457031 191.574219 39.800781 191.820313 40.167969 C 192.066406 40.539063 192.273438 40.925781 192.445313 41.335938 C 192.613281 41.746094 192.742188 42.167969 192.828125 42.605469 C 192.914063 43.039063 192.957031 43.480469 192.957031 43.921875 Z M 192.957031 43.921875 "/>
</g>
<g clip-path="url(#clip9)" clip-rule="nonzero">
<path style=" stroke:none;fill-rule:nonzero;fill:rgb(26.669312%,85.099792%,90.19928%);fill-opacity:1;" d="M 215.46875 62.433594 C 215.46875 62.703125 215.441406 62.972656 215.386719 63.238281 C 215.335938 63.503906 215.257813 63.761719 215.152344 64.011719 C 215.050781 64.261719 214.921875 64.5 214.769531 64.726563 C 214.621094 64.953125 214.449219 65.160156 214.257813 65.351563 C 214.066406 65.542969 213.859375 65.714844 213.632813 65.867188 C 213.40625 66.015625 213.167969 66.144531 212.917969 66.246094 C 212.667969 66.351563 212.410156 66.429688 212.144531 66.484375 C 211.878906 66.535156 211.609375 66.5625 211.339844 66.5625 C 211.066406 66.5625 210.796875 66.535156 210.53125 66.484375 C 210.265625 66.429688 210.007813 66.351563 209.757813 66.246094 C 209.507813 66.144531 209.269531 66.015625 209.042969 65.867188 C 208.820313 65.714844 208.609375 65.542969 208.417969 65.351563 C 208.226563 65.160156 208.054688 64.953125 207.90625 64.726563 C 207.753906 64.5 207.625 64.261719 207.523438 64.011719 C 207.417969 63.761719 207.339844 63.503906 207.289063 63.238281 C 207.234375 62.972656 207.207031 62.703125 207.207031 62.433594 C 207.207031 62.160156 207.234375 61.894531 207.289063 61.628906 C 207.339844 61.363281 207.417969 61.101563 207.523438 60.851563 C 207.625 60.601563 207.753906 60.363281 207.90625 60.140625 C 208.054688 59.914063 208.226563 59.703125 208.417969 59.511719 C 208.609375 59.320313 208.820313 59.148438 209.042969 59 C 209.269531 58.847656 209.507813 58.722656 209.757813 58.617188 C 210.007813 58.515625 210.265625 58.4375 210.53125 58.382813 C 210.796875 58.328125 211.066406 58.304688 211.339844 58.304688 C 211.609375 58.304688 211.878906 58.328125 212.144531 58.382813 C 212.410156 58.4375 212.667969 58.515625 212.917969 58.617188 C 213.167969 58.722656 213.40625 58.847656 213.632813 59 C 213.859375 59.148438 214.066406 59.320313 214.257813 59.511719 C 214.449219 59.703125 214.621094 59.914063 214.769531 60.140625 C 214.921875 60.363281 215.050781 60.601563 215.152344 60.851563 C 215.257813 61.101563 215.335938 61.363281 215.386719 61.628906 C 215.441406 61.894531 215.46875 62.160156 215.46875 62.433594 Z M 215.46875 62.433594 "/>
</g>
<g clip-path="url(#clip10)" clip-rule="nonzero">
<path style=" stroke:none;fill-rule:nonzero;fill:rgb(26.669312%,85.099792%,90.19928%);fill-opacity:1;" d="M 205.148438 72.742188 C 205.148438 73.191406 205.0625 73.621094 204.890625 74.035156 C 204.71875 74.449219 204.476563 74.816406 204.160156 75.132813 C 203.84375 75.449219 203.476563 75.691406 203.0625 75.863281 C 202.648438 76.035156 202.21875 76.121094 201.769531 76.121094 C 201.324219 76.121094 200.890625 76.035156 200.476563 75.863281 C 200.0625 75.691406 199.699219 75.449219 199.382813 75.132813 C 199.066406 74.816406 198.820313 74.449219 198.648438 74.035156 C 198.476563 73.621094 198.390625 73.191406 198.390625 72.742188 C 198.390625 72.296875 198.476563 71.863281 198.648438 71.449219 C 198.820313 71.035156 199.066406 70.671875 199.382813 70.355469 C 199.699219 70.039063 200.0625 69.792969 200.476563 69.621094 C 200.890625 69.449219 201.324219 69.363281 201.769531 69.363281 C 202.21875 69.363281 202.648438 69.449219 203.0625 69.621094 C 203.476563 69.792969 203.84375 70.039063 204.160156 70.355469 C 204.476563 70.671875 204.71875 71.035156 204.890625 71.449219 C 205.0625 71.863281 205.148438 72.296875 205.148438 72.742188 Z M 205.148438 72.742188 "/>
</g>
</g>
</svg>
